<?xml version="1.0" encoding="utf-8"?>
<!-- Generator: Adobe Illustrator 27.4.1, SVG Export Plug-In . SVG Version: 6.00 Build 0)  -->
<svg version="1.1" id="Layer_1" xmlns="http://www.w3.org/2000/svg" xmlns:xlink="http://www.w3.org/1999/xlink" x="0px" y="0px"
	 viewBox="0 0 420 354" style="enable-background:new 0 0 420 354;" xml:space="preserve">
<style type="text/css">
	.st0{fill:#FFFFFF;}
	.st1{fill:#3C250F;}
	.st2{fill:#EBC9A7;stroke:#000000;}
	.st3{fill:#EBC9A7;}
</style>
<path class="st0" d="M286.5,150.8h111c11,0,20,9,20,20v12c0,11-9,20-20,20h-111c-11,0-20-9-20-20v-12
	C266.5,159.8,275.5,150.8,286.5,150.8z"/>
<ellipse class="st0" cx="179" cy="177" rx="179" ry="177"/>
<ellipse class="st1" cx="179" cy="177" rx="163" ry="161"/>
<path class="st2" d="M323.5,177c0,78.7-64.7,142.5-144.5,142.5S34.5,255.7,34.5,177S99.2,34.5,179,34.5S323.5,98.3,323.5,177z"/>
<path class="st1" d="M27.9,236.9L178.8,87.5l55.8,55.2L82.1,293.6L27.9,236.9L27.9,236.9z"/>
<path class="st1" d="M278.6,295.5l51.1-61.2l-108-104.7l-55.3,54.8L278.6,295.5L278.6,295.5z"/>
<ellipse class="st3" cx="106.2" cy="213.7" rx="28.3" ry="27.6"/>
<ellipse class="st3" cx="251.7" cy="213.7" rx="28.3" ry="27.6"/>
<ellipse class="st3" cx="179" cy="149.2" rx="28.3" ry="27.6"/>
</svg>
